<mxfile host="app.diagrams.net" modified="2022-07-11T06:12:23.587Z" agent="5.0 (Windows NT 10.0; Win64; x64) AppleWebKit/537.36 (KHTML, like Gecko) Chrome/103.0.5060.114 Safari/537.36 Edg/103.0.1264.49" etag="JfK3DZTpoEIMVgd2rGPc" version="20.0.4" type="github">
  <diagram id="C6OX11pUsywgYTWx1f4p" name="Page-1">
    <mxGraphModel dx="1483" dy="816" grid="1" gridSize="10" guides="1" tooltips="1" connect="1" arrows="1" fold="1" page="0" pageScale="1" pageWidth="827" pageHeight="1169" math="0" shadow="0">
      <root>
        <mxCell id="0" />
        <mxCell id="1" parent="0" />
        <mxCell id="GOCetqZbydDTcwRi5FND-1" value="User" style="shape=umlActor;verticalLabelPosition=bottom;verticalAlign=top;html=1;outlineConnect=0;labelBackgroundColor=none;" parent="1" vertex="1">
          <mxGeometry x="400" y="280" width="30" height="60" as="geometry" />
        </mxCell>
        <mxCell id="GOCetqZbydDTcwRi5FND-2" value="Guest" style="shape=umlActor;verticalLabelPosition=bottom;verticalAlign=top;html=1;outlineConnect=0;labelBackgroundColor=none;" parent="1" vertex="1">
          <mxGeometry x="400" y="120" width="30" height="60" as="geometry" />
        </mxCell>
        <mxCell id="GOCetqZbydDTcwRi5FND-3" value="Admin" style="shape=umlActor;verticalLabelPosition=bottom;verticalAlign=top;html=1;outlineConnect=0;labelBackgroundColor=none;" parent="1" vertex="1">
          <mxGeometry x="400" y="440" width="30" height="60" as="geometry" />
        </mxCell>
        <mxCell id="HhRDs5ZZaX0OzWnAWIKS-2" value="Use Case" style="ellipse;whiteSpace=wrap;html=1;" vertex="1" parent="1">
          <mxGeometry x="180" y="320" width="140" height="70" as="geometry" />
        </mxCell>
        <mxCell id="HhRDs5ZZaX0OzWnAWIKS-3" value="Use Case" style="ellipse;whiteSpace=wrap;html=1;" vertex="1" parent="1">
          <mxGeometry x="180" y="390" width="140" height="70" as="geometry" />
        </mxCell>
        <mxCell id="HhRDs5ZZaX0OzWnAWIKS-4" value="Use Case" style="ellipse;whiteSpace=wrap;html=1;" vertex="1" parent="1">
          <mxGeometry x="180" y="250" width="140" height="70" as="geometry" />
        </mxCell>
        <mxCell id="HhRDs5ZZaX0OzWnAWIKS-5" value="Use Case" style="ellipse;whiteSpace=wrap;html=1;" vertex="1" parent="1">
          <mxGeometry x="180" y="460" width="140" height="70" as="geometry" />
        </mxCell>
        <mxCell id="HhRDs5ZZaX0OzWnAWIKS-6" value="Use Case" style="ellipse;whiteSpace=wrap;html=1;" vertex="1" parent="1">
          <mxGeometry x="180" y="180" width="140" height="70" as="geometry" />
        </mxCell>
        <mxCell id="HhRDs5ZZaX0OzWnAWIKS-7" value="Use Case" style="ellipse;whiteSpace=wrap;html=1;" vertex="1" parent="1">
          <mxGeometry x="180" y="110" width="140" height="70" as="geometry" />
        </mxCell>
        <mxCell id="HhRDs5ZZaX0OzWnAWIKS-8" value="Use Case" style="ellipse;whiteSpace=wrap;html=1;" vertex="1" parent="1">
          <mxGeometry x="680" y="460" width="140" height="70" as="geometry" />
        </mxCell>
        <mxCell id="HhRDs5ZZaX0OzWnAWIKS-9" value="Use Case" style="ellipse;whiteSpace=wrap;html=1;" vertex="1" parent="1">
          <mxGeometry x="930" y="280" width="140" height="70" as="geometry" />
        </mxCell>
        <mxCell id="HhRDs5ZZaX0OzWnAWIKS-10" value="Use Case" style="ellipse;whiteSpace=wrap;html=1;" vertex="1" parent="1">
          <mxGeometry x="200" y="770" width="140" height="70" as="geometry" />
        </mxCell>
        <mxCell id="HhRDs5ZZaX0OzWnAWIKS-11" value="Use Case" style="ellipse;whiteSpace=wrap;html=1;" vertex="1" parent="1">
          <mxGeometry x="60" y="770" width="140" height="70" as="geometry" />
        </mxCell>
        <mxCell id="HhRDs5ZZaX0OzWnAWIKS-12" value="Use Case" style="ellipse;whiteSpace=wrap;html=1;" vertex="1" parent="1">
          <mxGeometry x="200" y="670" width="140" height="70" as="geometry" />
        </mxCell>
        <mxCell id="HhRDs5ZZaX0OzWnAWIKS-13" value="Use Case" style="ellipse;whiteSpace=wrap;html=1;" vertex="1" parent="1">
          <mxGeometry x="340" y="770" width="140" height="70" as="geometry" />
        </mxCell>
        <mxCell id="HhRDs5ZZaX0OzWnAWIKS-14" value="Use Case" style="ellipse;whiteSpace=wrap;html=1;" vertex="1" parent="1">
          <mxGeometry x="520" y="510" width="140" height="70" as="geometry" />
        </mxCell>
        <mxCell id="HhRDs5ZZaX0OzWnAWIKS-15" value="Use Case" style="ellipse;whiteSpace=wrap;html=1;" vertex="1" parent="1">
          <mxGeometry x="710" y="620" width="140" height="70" as="geometry" />
        </mxCell>
        <mxCell id="HhRDs5ZZaX0OzWnAWIKS-16" value="Use Case" style="ellipse;whiteSpace=wrap;html=1;" vertex="1" parent="1">
          <mxGeometry x="850" y="620" width="140" height="70" as="geometry" />
        </mxCell>
        <mxCell id="HhRDs5ZZaX0OzWnAWIKS-17" value="Use Case" style="ellipse;whiteSpace=wrap;html=1;" vertex="1" parent="1">
          <mxGeometry x="990" y="620" width="140" height="70" as="geometry" />
        </mxCell>
        <mxCell id="HhRDs5ZZaX0OzWnAWIKS-18" value="Use Case" style="ellipse;whiteSpace=wrap;html=1;" vertex="1" parent="1">
          <mxGeometry x="1130" y="620" width="140" height="70" as="geometry" />
        </mxCell>
      </root>
    </mxGraphModel>
  </diagram>
</mxfile>
